<?xml version="1.0" encoding="UTF-8" standalone="no"?>
<!-- Created with Inkscape (http://www.inkscape.org/) -->

<svg
   xmlns:dc="http://purl.org/dc/elements/1.1/"
   xmlns:cc="http://creativecommons.org/ns#"
   xmlns:rdf="http://www.w3.org/1999/02/22-rdf-syntax-ns#"
   xmlns:svg="http://www.w3.org/2000/svg"
   xmlns="http://www.w3.org/2000/svg"
   xmlns:sodipodi="http://sodipodi.sourceforge.net/DTD/sodipodi-0.dtd"
   xmlns:inkscape="http://www.inkscape.org/namespaces/inkscape"
   version="1.1"
   id="svg32168"
   width="1561.4402"
   height="832.59137"
   viewBox="0 0 1561.4402 832.59137"
   sodipodi:docname="hand-1464838.svg"
   inkscape:version="0.92.2 5c3e80d, 2017-08-06">
  <metadata
     id="metadata32174">
    <rdf:RDF>
      <cc:Work
         rdf:about="">
        <dc:format>image/svg+xml</dc:format>
        <dc:type
           rdf:resource="http://purl.org/dc/dcmitype/StillImage" />
        <dc:title></dc:title>
      </cc:Work>
    </rdf:RDF>
  </metadata>
  <defs
     id="defs32172" />
  <sodipodi:namedview
     pagecolor="#ffffff"
     bordercolor="#ff0000"
     borderopacity="1"
     objecttolerance="10"
     gridtolerance="10"
     guidetolerance="10"
     inkscape:pageopacity="0"
     inkscape:pageshadow="2"
     inkscape:window-width="1696"
     inkscape:window-height="917"
     id="namedview32170"
     showgrid="false"
     inkscape:pagecheckerboard="true"
     borderlayer="true"
     fit-margin-top="0"
     fit-margin-left="0"
     fit-margin-right="0"
     fit-margin-bottom="0"
     inkscape:zoom="0.66458333"
     inkscape:cx="760.17248"
     inkscape:cy="396.45187"
     inkscape:window-x="0"
     inkscape:window-y="23"
     inkscape:window-maximized="0"
     inkscape:current-layer="svg32168" />
  <path
     style="fill:#000000"
     d="m 739.3944,831.72576 c -36.93656,-2.6692 -97.41688,-16.0994 -184.94219,-41.0681 -11.55,-3.2949 -45.75,-13.345 -76,-22.3336 -30.25,-8.9885 -64.45,-19.125 -76,-22.5255 -54.777,-16.1273 -98.96711,-35.6223 -142.78965,-62.9934 l -11.16231,-6.9718 -2.6084,6.7385 c -14.34664,37.0634 -38.27227,53.8656 -86.67142,60.8666 -16.22345,2.3468 -46.88446,2.3589 -62.071984,0.025 -32.04245,-4.925 -53.21255,-14.4628 -69.00651,-31.0897 -15.04893,-15.8426 -21.7022401,-37.8244 -25.1409201,-83.0629 -2.37574005,-31.2547 -3.02849005,-74.0073 -3.00014004766,-196.5 C 0.04197585,254.9903 1.1490659,218.19635 7.0564459,198.31086 13.099846,177.96749 27.555736,161.8469 48.330316,152.28402 c 16.77287,-7.72083 37.14014,-11.84348 67.210004,-13.60434 42.64672,-2.49734 74.11286,2.7012 98.00748,16.1919 7.50582,4.23772 23.71773,18.76636 27.72751,24.84858 l 1.58835,2.40929 5.68454,-4.90929 c 3.12649,-2.70012 9.78391,-8.44461 14.79427,-12.76554 5.01036,-4.32092 16.75974,-14.03435 26.10974,-21.58538 58.86948,-47.54283 112.39837,-80.31499 155.44039,-95.16575 16.70701,-5.76441 24.21488,-7.47898 52.28848,-11.94113 13.89912,-2.20919 46.87113,-7.81185 73.27113,-12.45036 52.81931,-9.2804 84.62085,-14.36836 109,-17.43899 67.78449,-8.53768 112.63153,-7.78831 142.948,2.38859 28.552,9.5846 80.6843,43.6892 126.0442,82.45738 16.0632,13.7289 47.0656,45.30947 54.00779,55.015 3.3,4.61359 7.6969,10.29127 9.7709,12.61708 3.6121,4.05074 4.0751,4.2555 11,4.8647 8.6611,0.76194 90.2142,3.78725 177.7291,6.59307 146.5553,4.69874 201.8744,8.3733 248.845,16.52951 65.494,11.37272 98.2401,32.64224 109.355,71.02911 2.0014,6.91227 2.2984,10.1502 2.2877,24.94341 -0.012,16.48467 -0.1069,17.26558 -3.1347,25.76121 -3.968,11.13373 -8.3079,18.41069 -15.8057,26.50264 -19.546,21.09479 -50.6895,32.34253 -104.5473,37.75812 -21.7025,2.18226 -85.8363,3.00611 -119,1.52865 -37.3849,-1.66552 -96.142,-2.45126 -118.1502,-1.57999 l -18.6503,0.73833 0.935,3.14552 c 6.406,21.55298 6.8924,46.2664 1.365,69.36292 -10.1081,42.2372 -33.7113,69.0493 -72.4995,82.3559 -5.225,1.7925 -9.6508,3.3726 -9.8351,3.5114 -0.1844,0.1387 0.5993,4.0014 1.7415,8.5838 6.3401,25.4359 4.1085,50.5578 -6.706,75.4919 -7.4789,17.2434 -17.1524,28.7974 -32.4612,38.7717 -15.1901,9.8969 -35.2405,17.7684 -58.2392,22.8638 l -10.99999,2.437 0.5,4.8836 c 1.0216,9.9784 0.3063,28.8722 -1.3521,35.7124 -3.8356,15.82 -14.6755,35.0998 -25.7138,45.7345 -18.6835,18.0005 -49.1839,31.4389 -100.9341,44.4714 -29.3256,7.3852 -90.92263,20.4834 -101,21.477 -10.57673,1.0428 -11.85446,1.0383 -27.55781,-0.097 z"
     id="path32222" />
  <path
     style="fill:#ffffff"
     d="m 693.13133,769.06046 c -46.1587,-33.6299 -83.27296,-72.972 -97.69669,-103.561 -5.71884,-12.1282 -7.48243,-19.4243 -7.48243,-30.9551 0,-20.375 7.97185,-40.1304 22.45245,-55.6402 5.35669,-5.7375 19.17799,-16.5242 22.54005,-17.5913 1.10412,-0.3505 2.0075,-1.0413 2.0075,-1.5352 0,-0.494 -2.94108,-5.3869 -6.53573,-10.8731 -11.70237,-17.8606 -15.58291,-28.8342 -15.59265,-44.0941 -0.0164,-25.7877 13.33513,-48.0524 39.20026,-65.3692 l 7.79634,-5.21974 -2.93655,-4.95553 c -3.84944,-6.49607 -6.61633,-15.48439 -7.4872,-24.32233 -0.38659,-3.92326 -0.81172,-7.1332 -0.94473,-7.1332 -0.133,0 -4.68736,1.96819 -10.12078,4.37375 -42.0195,18.60344 -96.57402,28.24348 -170.87896,30.19511 -37.58597,0.9872 -99.85377,-1.98367 -109.90974,-5.24392 -7.00531,-2.27119 -13.02795,-8.58283 -15.14772,-15.87461 -2.73243,-9.39922 -0.22599,-17.79949 7.35434,-24.64785 7.30514,-6.59977 7.49801,-6.61329 54.20312,-3.80126 20.74765,1.24919 70.71118,1.24116 90.51707,-0.0145 70.18172,-4.44959 116.42658,-16.75105 151.98293,-40.42857 39.03853,-25.99636 65.85854,-64.29809 80.91722,-115.55815 3.53016,-12.01673 7.93611,-17.44928 16.64345,-20.5214 9.78465,-3.45223 17.68585,-1.08575 28.61643,8.57087 14.95358,13.21073 30.6439,18.87094 58.138,20.97302 17.9411,1.37169 24.8227,4.94563 29.8016,15.47751 2.8824,6.09699 3.1171,13.83105 0.6548,21.5685 -2.2421,7.04518 -2.2057,25.46449 0.071,35.9315 7.7763,35.7516 34.4841,81.9128 60.6059,104.75004 23.9534,20.94151 48.1889,26.68646 64.9867,15.40496 6.1302,-4.11704 9.6702,-9.8766 11.0181,-17.9263 1.5115,-9.02604 0.3354,-16.72563 -6.4502,-42.2287 -14.2406,-53.52179 -16.503,-73.0675 -16.503,-142.57394 v -32.28073 l -3.5286,-6.76966 c -8.4654,-16.24113 -29.6255,-38.64484 -62.4714,-66.14297 -34.3689,-28.77316 -76.8747,-56.98212 -98.4427,-65.33145 -12.9443,-5.01095 -19.85047,-5.99854 -46.0573,-6.58626 -43.60518,-0.9779 -78.83463,3.28869 -195.29181,23.65148 -27.8895,4.87655 -58.55792,10.0658 -68.15204,11.53169 -21.86195,3.34028 -32.95554,6.14197 -47.83016,12.07952 -48.52324,19.36918 -111.40658,62.60152 -178.44224,122.67916 l -16.46593,14.75684 -0.65538,33.24316 c -0.36046,18.28374 -0.95519,105.50658 -1.32163,193.82856 l -0.66625,160.5854 8.46366,6.0151 c 35.72453,25.3893 82.94399,49.2233 126.36178,63.781 6.05,2.0285 21.8,6.84 35,10.6922 13.2,3.8523 43.35,12.7781 67,19.8352 79.68032,23.7765 114.91403,33.6877 154.74357,43.5291 22.58017,5.5793 52.73634,12.2411 56.10089,12.3932 1.01446,0.046 -3.55995,-3.8541 -10.16534,-8.6666 z"
     id="path32220" />
  <path
     style="fill:#ffffff"
     d="m 854.95221,760.86716 c 15.2221,-0.7727 15.8048,-0.8877 32.5,-6.4147 9.35,-3.0953 22.5394,-8.3769 29.3097,-11.7369 15.2291,-7.5578 21.1206,-12.9182 26.7662,-24.3532 3.827,-7.7516 3.9241,-8.2133 3.9241,-18.6667 0,-5.8952 -0.3212,-11.0397 -0.7138,-11.4323 -0.3926,-0.3926 -6.9176,0.2476 -14.5,1.4227 -22.7097,3.5193 -36.378,4.4627 -65.2862,4.5059 -44.135,0.066 -70.2444,-3.5206 -88.2402,-12.1214 -26.16413,-12.5046 -64.49018,-41.2497 -99.25962,-74.4461 l -10.74295,-10.2569 -8.46162,4.4328 c -17.72934,9.2877 -27.50878,25.9105 -22.86796,38.8702 10.1427,28.324 69.62024,84.4302 116.57235,109.9648 14.24369,7.7463 19.77978,9.281 36.5,10.1182 20.3338,1.0181 45.7969,1.063 64.5,0.1136 z"
     id="path32218" />
  <path
     style="fill:#ffffff;stroke:#ffffff"
     d="m 158.95221,694.35336 c 18.82117,-3.7079 26.31256,-6.9037 32.87693,-14.0252 4.99717,-5.4213 8.37046,-12.5364 11.33293,-23.9041 1.9213,-7.3724 2.17108,-11.8133 2.73436,-48.6136 0.34094,-22.275 0.60547,-119.475 0.58784,-216 l -0.0321,-175.5 -2.3189,-4.34521 c -7.14813,-13.39436 -23.47913,-21.76143 -47.35348,-24.26122 -12.6257,-1.32198 -47.81611,-0.66173 -59.827624,1.12251 -18.70563,2.77861 -34.69051,9.01713 -39.44898,15.39601 -4.56004,6.1129 -6.08691,14.8823 -7.50213,43.08791 -1.44492,28.79728 -1.58617,324.1723 -0.16834,352 2.69182,52.8319 6.18343,72.564 14.27146,80.652 7.0878,7.0878 23.54567,13.3659 41.347994,15.7729 10.6806,1.444 43.4523,0.5975 53.5,-1.382 z"
     id="path32216" />
  <path
     style="fill:#ffffff"
     d="m 913.45221,643.40846 c 23.533,-3.2159 74.5092,-11.7458 84.3366,-14.1122 20.52829,-4.9431 36.87589,-11.9596 45.45159,-19.5082 11.6655,-10.2684 18.5162,-36.386 14.2895,-54.4776 -0.8994,-3.85 -2.3585,-8.9125 -3.2424,-11.25 -1.3386,-3.54 -2.0538,-4.25 -4.2815,-4.25 -3.833,0 -47.5946,5.6034 -67.05379,8.5857 -14.9668,2.2939 -19.6593,2.5445 -50.5,2.6974 -30.7481,0.1523 -35.3449,-0.044 -48.062,-2.0525 -7.7341,-1.2216 -19.7513,-3.7803 -26.7049,-5.686 -30.7604,-8.4305 -107.29096,-42.8993 -143.95835,-64.8377 l -15.72524,-9.4086 -4.02253,1.801 c -6.55666,2.9355 -18.17373,10.7558 -23.39253,15.7472 -5.3318,5.0994 -9.61491,12.9635 -9.61491,17.6535 0,10.589 18.15126,34.6773 48.60677,64.5056 24.69354,24.1849 46.79555,42.4032 70.98929,58.5154 19.2207,12.8002 24.3032,14.4446 53.8844,17.4337 13.316,1.3455 65.8247,0.4438 79,-1.3567 z"
     id="path32214" />
  <path
     style="fill:#ffffff"
     d="m 959.95221,501.62776 c 3.025,0.011 16.525,-1.4993 30,-3.3551 13.47499,-1.8558 36.64999,-4.7483 51.49999,-6.4278 27.982,-3.1647 43.6967,-5.831 52.7369,-8.9476 15.8107,-5.4506 27.6097,-14.2521 34.2901,-25.5787 4.2102,-7.1383 8.7966,-21.00871 10.5209,-31.81812 2.1869,-13.70938 -0.4253,-32.69084 -6.4997,-47.22897 l -1.4197,-3.39776 -6.3143,0.48902 c -3.4728,0.26897 -16.6642,1.16135 -29.3142,1.98308 -12.65,0.82172 -29.2277,2.01119 -36.8394,2.64326 l -13.8395,1.1492 0.5858,3.0861 c 0.3222,1.69735 0.8675,8.71109 1.2119,15.58609 1.3035,26.02173 -6.4119,46.4059 -23.5394,62.1914 -15.7627,14.5277 -32.84569,20.9577 -55.57379,20.918 -23.2338,-0.041 -45.7798,-8.3027 -67.5056,-24.7377 -9.7825,-7.4002 -25.4899,-22.68015 -33.2773,-32.3717 -12.1571,-15.12965 -28.0107,-40.79199 -36.8025,-59.57241 l -4.7951,-10.24309 -4.1229,0.92635 c -3.237,0.72729 -6.7423,0.37793 -16.3126,-1.62577 -39.02529,-8.17064 -60.75708,-11.57258 -75.54033,-11.82524 l -9.35252,-0.15984 -4.45191,4.90588 c -5.01712,5.52873 -12.41943,20.07035 -14.81014,29.09412 -1.82629,6.89339 -3.11338,22.0582 -2.18582,25.75391 0.83787,3.33836 8.78556,12.06655 14.53084,15.95783 2.54115,1.72113 6.19528,4.52418 8.12028,6.229 10.99871,9.74069 61.02348,35.63296 105,54.34686 49.2199,20.9452 60.8656,23.4972 103,22.5711 14.025,-0.3083 27.975,-0.5519 31,-0.5414 z"
     id="path32212" />
  <path
     style="fill:#ffffff"
     d="m 1063.9522,330.82967 c 91.1225,-6.86261 173.3235,-9.00222 240.5,-6.25998 49.9219,2.03789 65.1866,2.24752 93.1813,1.27965 49.6487,-1.71651 77.8543,-6.26256 96.8689,-15.61283 13.8665,-6.81876 18.9302,-14.42258 18.9303,-28.42605 10e-5,-18.43574 -7.3408,-27.75412 -28.6121,-36.31946 -36.3776,-14.64821 -99.1257,-21.06887 -255.8684,-26.18158 -82.0704,-2.67701 -163.9342,-5.53668 -184.5,-6.44495 -11.829,-0.52242 -20.3822,-0.51556 -20.9354,0.0168 -1.3388,1.28814 1.0942,75.89624 2.9154,89.40305 1.5872,11.77176 4.2362,25.64955 5.5612,29.13445 0.5802,1.52616 1.482,2.03626 3.1366,1.77431 1.2772,-0.20221 14.2472,-1.26574 28.8222,-2.36341 z"
     id="path32210" />
  <path
     style="fill:#ffffff"
     d="m 811.58251,304.56046 c -0.3317,-1.2375 -0.6091,-6.62893 -0.6166,-11.98095 -0.013,-9.28917 -0.1158,-9.75094 -2.2637,-10.17125 -10.9418,-2.14124 -25.68679,-6.28465 -32.71897,-9.19419 -4.69207,-1.94132 -9.2242,-3.75413 -10.0714,-4.02846 -1.11934,-0.36244 -2.18759,1.08977 -3.90829,5.31304 -1.30237,3.1965 -4.12514,9.34588 -6.27283,13.66529 -2.14769,4.31941 -3.76395,7.96319 -3.5917,8.09728 0.17226,0.13409 6.83819,1.25132 14.81319,2.48273 7.975,1.2314 20.575,3.5048 28,5.05199 17.2535,3.5952 17.3906,3.60151 16.6303,0.76452 z"
     id="path32178" />
</svg>
